DataType=double
version=3
OpenSimVersion=4.5-2024-01-10-34fd6af
endheader
time	pelvis_tilt	pelvis_list	pelvis_rotation	pelvis_tx	pelvis_ty	pelvis_tz	hip_flexion_r	hip_adduction_r	hip_rotation_r	knee_angle_r	knee_adduction_r	knee_angle_r_beta	ankle_angle_r	subtalar_angle_r	mtp_angle_r	hip_flexion_l	hip_adduction_l	hip_rotation_l	knee_angle_l	knee_adduction_l	knee_angle_l_beta	ankle_angle_l	subtalar_angle_l	mtp_angle_l	lumbar_extension	lumbar_bending	lumbar_rotation	arm_flex_r	arm_add_r	arm_rot_r	elbow_flex_r	pro_sup_r	wrist_flex_r	wrist_dev_r	arm_flex_l	arm_add_l	arm_rot_l	elbow_flex_l	pro_sup_l	wrist_flex_l	wrist_dev_l
2.495	-0.1226647743345034	-0.008061818232206362	0.04275752237547643	0.8249918420023918	0.9712345583297934	0.5074880156623318	0.276913314852008	0.008649832188775543	-0.05677605281387502	0.3174329682873599	0.1091	0.3174329682873599	0.08822145452436932	-0.036713235101916	-0.1191299195084662	0.5172149038207358	-0.02197313670839021	-0.0123634048891773	1.211608330030589	0.1123	1.211608330030589	-0.09863041681270067	-0.02776700437367514	-0.2416964141599192	-0.04307674410735565	0.01238005152434066	-0.01273142448312145	-0.01159663265808558	-0.2221514389072812	-0.2081747129305282	0.6718236798438406	1.57079633	0	0	-0.05472489699240905	-0.2534533550363799	-0.0003687315683289592	0.7511645488261333	1.57079633	0	0
2.5	-0.124105224989047	-0.007296909736273156	0.04234709547021582	0.8244884197331376	0.9717746830887715	0.5076843774797155	0.2692404388919982	0.008450475225005947	-0.05610002433958466	0.3117417965578948	0.1091	0.3117417965578948	0.08980818135876313	-0.03576326947210398	-0.1191207849772301	0.5277984025763442	-0.02145205572658869	-0.01505843687205966	1.20007379852431	0.1123	1.20007379852431	-0.08662152624878314	-0.02758402366091174	-0.2430570241562116	-0.04211812470241794	0.01002980095615576	-0.01198294214136648	-0.007164014594772818	-0.2228393422564181	-0.2072983031440454	0.679836201709701	1.57079633	0	0	-0.05846908973696034	-0.2524365458485959	0.0006778058365046365	0.739119172608127	1.57079633	0	0
2.505	-0.1254930041126188	-0.006566883614172092	0.04183562854856927	0.8239731451405486	0.9722782977317714	0.5078757760777897	0.261616257347466	0.008312269410767199	-0.05527161568412526	0.3061755027739035	0.1091	0.3061755027739035	0.09130127728396607	-0.03495540338378659	-0.119270786447729	0.537814758268839	-0.02117124206125219	-0.01796497729124415	1.18701599967878	0.1123	1.18701599967878	-0.07574652060676967	-0.02828227226659004	-0.2442219510702874	-0.0412631792937143	0.007778227519845877	-0.01114793937199651	-0.002806726930669003	-0.223593512407558	-0.2063802690897929	0.6880807132202845	1.57079633	0	0	-0.06225281257062613	-0.2514337523144732	0.001727414274420363	0.727216079083722	1.57079633	0	0
2.51	-0.1268152254460858	-0.005874414950420135	0.04122709753785837	0.8234474880763505	0.9727446280643919	0.5080609956429561	0.2540307241234194	0.008234271587964467	-0.05429697868390623	0.3007501432734089	0.1091	0.3007501432734089	0.09271937981395004	-0.03428229291312234	-0.1195817883427912	0.5472302050996002	-0.02112418138122104	-0.02104562562812021	1.172433685041396	0.1123	1.172433685041396	-0.06603644990199986	-0.02981959139122402	-0.2451407984154438	-0.04052501527137178	0.005633624395807429	-0.01023486117004601	0.001474055802210349	-0.2244181901127134	-0.2054120671823157	0.6965599198050616	1.57079633	0	0	-0.06607118439900701	-0.2504359158782086	0.002771900625012546	0.715461187128881	1.57079633	0	0
2.515	-0.128060721718911	-0.005222761265060017	0.04052588530552558	0.8229130719265493	0.9731729831168346	0.508238700046738	0.2464734923286035	0.008215292683544189	-0.05318560848602247	0.295478292627578	0.1091	0.295478292627578	0.09408046005012617	-0.0337318046290469	-0.1200565093051992	0.5560131962086444	-0.02130369008633388	-0.02426476885690841	1.156326215884589	0.1123	1.156326215884589	-0.05750339140723976	-0.032137729287355	-0.2457736833017791	-0.03991364069093878	0.00360466268201899	-0.009253376935391869	0.00567708933003485	-0.2253168423284171	-0.2043862104053134	0.705274037529103	1.57079633	0	0	-0.06992063571950356	-0.249434055416475	0.003802634605618114	0.7038613736579475	1.57079633	0	0
2.52	-0.1292202152432952	-0.00461592325702046	0.03973676805186193	0.822371659372179	0.9735627226412146	0.5084074668483303	0.2389342226997384	0.008254220466673828	-0.05194999902433705	0.2903691509916076	0.1091	0.2903691509916076	0.09540160561341517	-0.03328760792330177	-0.1206981857100408	0.5641352739957505	-0.02170232627133733	-0.02758920368784791	1.138694835986374	0.1123	1.138694835986374	-0.05014189247802402	-0.03516421064026373	-0.2460909711889758	-0.03943580802509971	0.001700488766083516	-0.008214206141235903	0.009801101106735405	-0.2262920955783642	-0.2032964420434399	0.7142204765667951	1.57079633	0	0	-0.07379913467370615	-0.2484194511961328	0.004810661119306637	0.6924251611177115	1.57079633	0	0
2.525	-0.1302864413951505	-0.004058777830753467	0.03886491918257561	0.8218251323160466	0.9739132281541617	0.5085658201560319	0.2314028801768132	0.008350319494069541	-0.05060526920691308	0.285428719355074	0.1091	0.285428719355074	0.09669881581451714	-0.03292983611927202	-0.1215102295820596	0.5715719229547466	-0.02231274111752449	-0.03098863624260947	1.119544048195899	0.1123	1.119544048195899	-0.04393041295795573	-0.03881415425322225	-0.2460728390204687	-0.03909495157820722	-6.920290408099841e-05	-0.007128912415471447	0.01384481865284181	-0.2273456946457457	-0.2021378862675252	0.7233935918647767	1.57079633	0	0	-0.07770630175177216	-0.2473838133296231	0.005786831962399106	0.6811632662057648	1.57079633	0	0
